<svg width="267.563" height="112" viewBox="0 0 267.563 112" fill="none" xmlns="http://www.w3.org/2000/svg">
<path fill-rule="evenodd" clip-rule="evenodd" d="M52 24.1768C50.8975 23.75 49.7254 23.3567 48.4837 22.9969C45.1728 22.0374 41.8833 21.7705 38.6149 22.1963C35.3749 22.6303 32.534 23.7728 30.0922 25.6238C27.6867 27.4541 26.0379 29.9718 25.1458 33.1769C24.2536 36.3819 24.1712 39.2599 24.8984 41.8109C25.6256 44.3619 26.8494 46.6668 28.5699 48.7255C30.3187 50.7925 32.2834 52.688 34.464 54.4121C36.6527 56.1073 38.4431 57.6402 39.8352 59.011C41.2354 60.3529 42.2091 61.6336 42.7565 62.8531C43.3039 64.0727 43.4048 65.3032 43.0592 66.5448C42.593 68.2195 41.5644 69.388 39.9734 70.0502C38.3903 70.6835 36.2971 70.623 33.6937 69.8685C32.1374 69.4175 30.6129 68.7417 29.1205 67.8411C27.6564 66.9487 26.3013 65.9944 25.0552 64.978C23.8171 63.9327 22.7832 62.9778 21.9535 62.1133C21.1521 61.257 20.6178 60.6497 20.3506 60.2914L11 69.3296C11.2714 69.7827 12.1963 70.7996 13.7746 72.3803C15.3529 73.9611 17.5315 75.6377 20.3102 77.4103C23.1172 79.1911 26.445 80.6392 30.2935 81.7545C33.0101 82.5418 35.7241 82.9538 38.4355 82.9907C41.1672 83.0647 43.7163 82.6957 46.083 81.8838C48.3441 81.125 50.3165 79.9348 52 78.3133C53.6835 79.9348 55.6559 81.125 57.917 81.8838C60.2837 82.6957 62.8328 83.0647 65.5645 82.9907C68.2759 82.9538 70.9899 82.5418 73.7065 81.7545C77.555 80.6392 80.8828 79.1911 83.6898 77.4103C86.4685 75.6377 88.647 73.9611 90.2254 72.3803C91.8037 70.7996 92.7286 69.7827 93 69.3296L83.6494 60.2914C83.3822 60.6497 82.8479 61.257 82.0465 62.1133C81.2168 62.9778 80.1829 63.9327 78.9448 64.978C77.6987 65.9944 76.3436 66.9487 74.8795 67.8411C73.3871 68.7417 71.8626 69.4175 70.3063 69.8685C67.7029 70.623 65.6096 70.6835 64.0266 70.0502C62.4356 69.388 61.407 68.2195 60.9408 66.5448C60.5952 65.3032 60.6961 64.0727 61.2435 62.8531C61.7909 61.6336 62.7646 60.3529 64.1648 59.011C65.5569 57.6402 67.3473 56.1073 69.536 54.4121C71.7166 52.688 73.6813 50.7925 75.4301 48.7255C77.1506 46.6668 78.3744 44.3619 79.1016 41.8109C79.8288 39.2599 79.7464 36.3819 78.8542 33.1769C77.9621 29.9718 76.3133 27.4541 73.9078 25.6238C71.466 23.7728 68.6251 22.6303 65.3851 22.1963C62.1167 21.7705 58.8272 22.0374 55.5163 22.9969C54.2746 23.3567 53.1025 23.75 52 24.1768ZM52 37.9992C52.911 38.7081 53.6953 39.4229 54.353 40.1435C55.2717 41.1274 55.9093 41.8582 56.2656 42.3359L63.8318 35.0643C64.9462 35.5579 65.6822 36.4475 66.0401 37.7329C66.3374 38.8013 66.253 39.8711 65.7866 40.9423C65.284 41.9929 64.4054 43.1212 63.1509 44.3272C61.8601 45.5126 60.1932 46.885 58.1502 48.4443C56.2732 49.8308 54.5636 51.3247 53.0217 52.9261C52.6661 53.2954 52.3255 53.672 52 54.0558C51.6745 53.672 51.3339 53.2954 50.9783 52.9261C49.4364 51.3247 47.7268 49.8308 45.8498 48.4443C43.8068 46.885 42.1399 45.5126 40.8491 44.3272C39.5946 43.1212 38.716 41.9929 38.2134 40.9423C37.747 39.8711 37.6626 38.8013 37.9599 37.7329C38.3178 36.4475 39.0538 35.5579 40.1682 35.0643L47.7344 42.3359C48.0907 41.8582 48.7283 41.1274 49.647 40.1435C50.3047 39.4229 51.089 38.7081 52 37.9992Z" fill="#007BFF"/>
<path d="M129.536 31.992C132.075 31.992 134.283 32.28 136.16 32.856C138.059 33.4107 139.563 34.008 140.672 34.648C141.803 35.288 142.485 35.704 142.72 35.896L138.816 42.392C138.475 42.1147 137.888 41.7307 137.056 41.24C136.245 40.728 135.264 40.28 134.112 39.896C132.96 39.4907 131.712 39.288 130.368 39.288C128.427 39.288 126.869 39.6613 125.696 40.408C124.544 41.1333 123.968 42.1893 123.968 43.576C123.968 44.5147 124.277 45.3573 124.896 46.104C125.515 46.8293 126.421 47.512 127.616 48.152C128.832 48.792 130.315 49.464 132.064 50.168C133.6 50.7653 135.061 51.4587 136.448 52.248C137.856 53.0373 139.104 53.9653 140.192 55.032C141.301 56.0987 142.176 57.336 142.816 58.744C143.477 60.152 143.808 61.7627 143.808 63.576C143.808 65.6027 143.392 67.3733 142.56 68.888C141.749 70.4027 140.619 71.672 139.168 72.696C137.739 73.72 136.096 74.488 134.24 75C132.384 75.512 130.432 75.768 128.384 75.768C125.611 75.768 123.115 75.448 120.896 74.808C118.699 74.1467 116.917 73.4427 115.552 72.696C114.187 71.9493 113.387 71.4693 113.152 71.256L117.248 64.504C117.504 64.696 117.984 65.0053 118.688 65.432C119.413 65.8587 120.288 66.296 121.312 66.744C122.357 67.192 123.488 67.576 124.704 67.896C125.941 68.216 127.2 68.376 128.48 68.376C130.784 68.376 132.523 67.896 133.696 66.936C134.869 65.976 135.456 64.728 135.456 63.192C135.456 62.04 135.083 61.0267 134.336 60.152C133.589 59.2773 132.533 58.4773 131.168 57.752C129.824 57.0053 128.213 56.248 126.336 55.48C124.459 54.6907 122.709 53.7733 121.088 52.728C119.488 51.6613 118.197 50.36 117.216 48.824C116.235 47.2667 115.744 45.3573 115.744 43.096C115.744 40.856 116.373 38.904 117.632 37.24C118.912 35.576 120.597 34.2853 122.688 33.368C124.8 32.4507 127.083 31.992 129.536 31.992ZM147.254 32.76H155.254V75H147.254V32.76ZM202.476 32.76V75H194.508V47.96L194.892 41.816L193.452 48.792L185.164 71.992H177.292L169.036 48.792L167.628 41.816L167.98 47.96V75H159.98V32.76H171.052L180.716 62.872L181.228 65.752L181.74 62.872L191.436 32.76H202.476ZM207.568 32.76H221.616C224.283 32.76 226.693 33.2187 228.848 34.136C231.024 35.0533 232.752 36.4613 234.032 38.36C235.312 40.2373 235.952 42.6373 235.952 45.56C235.952 48.4613 235.312 50.904 234.032 52.888C232.752 54.872 231.024 56.376 228.848 57.4C226.693 58.4027 224.283 58.904 221.616 58.904H215.536V75H207.568V32.76ZM215.536 52.472H219.408C220.901 52.472 222.245 52.2587 223.44 51.832C224.656 51.384 225.627 50.6693 226.352 49.688C227.077 48.7067 227.44 47.3947 227.44 45.752C227.44 44.088 227.077 42.7867 226.352 41.848C225.627 40.888 224.656 40.2053 223.44 39.8C222.245 39.3733 220.901 39.16 219.408 39.16H215.536V52.472Z" fill="black"/>
</svg>
